<svg width="22" height="22" viewBox="0 0 22 22" fill="none" xmlns="http://www.w3.org/2000/svg">
<path d="M18.5624 1.37543C18.0154 1.37543 17.4908 1.59273 17.104 1.97952C16.7172 2.36632 16.4999 2.89092 16.4999 3.43793C16.4999 3.98494 16.7172 4.50955 17.104 4.89634C17.4908 5.28313 18.0154 5.50043 18.5624 5.50043C19.1094 5.50043 19.634 5.28313 20.0208 4.89634C20.4076 4.50955 20.6249 3.98494 20.6249 3.43793C20.6249 2.89092 20.4076 2.36632 20.0208 1.97952C19.634 1.59273 19.1094 1.37543 18.5624 1.37543ZM15.1249 3.43793C15.1248 2.6314 15.4083 1.85052 15.9258 1.2319C16.4433 0.613278 17.1618 0.196319 17.9557 0.0539703C18.7495 -0.0883785 19.5682 0.0529477 20.2684 0.453223C20.9686 0.853498 21.5057 1.48723 21.7859 2.24355C22.066 2.99987 22.0713 3.8306 21.8008 4.59042C21.5303 5.35023 21.0012 5.99074 20.3062 6.39988C19.6111 6.80902 18.7943 6.96073 17.9987 6.82848C17.2031 6.69623 16.4793 6.28843 15.954 5.67643L6.71675 9.96643C6.92902 10.6394 6.92902 11.3614 6.71675 12.0344L15.954 16.3244C16.5093 15.6786 17.2845 15.262 18.1295 15.1552C18.9745 15.0484 19.829 15.2591 20.5275 15.7465C21.226 16.2339 21.7186 16.9632 21.91 17.7931C22.1014 18.623 21.9779 19.4944 21.5634 20.2385C21.149 20.9825 20.473 21.5462 19.6666 21.8202C18.8602 22.0943 17.9808 22.0593 17.1988 21.7219C16.4167 21.3845 15.7878 20.7688 15.4339 19.9941C15.0799 19.2195 15.0262 18.341 15.283 17.5289L6.04575 13.2389C5.58847 13.7718 4.97896 14.1519 4.2992 14.328C3.61944 14.5042 2.90204 14.4679 2.24352 14.2241C1.58499 13.9803 1.01693 13.5407 0.615749 12.9643C0.214567 12.388 -0.000488281 11.7026 -0.000488281 11.0004C-0.000488281 10.2982 0.214567 9.61286 0.615749 9.03654C1.01693 8.46021 1.58499 8.02058 2.24352 7.77677C2.90204 7.53297 3.61944 7.49669 4.2992 7.67281C4.97896 7.84894 5.58847 8.22902 6.04575 8.76193L15.283 4.47193C15.1779 4.13735 15.1245 3.78865 15.1249 3.43793ZM3.43738 8.93793C2.89037 8.93793 2.36576 9.15523 1.97897 9.54202C1.59218 9.92882 1.37488 10.4534 1.37488 11.0004C1.37488 11.5474 1.59218 12.072 1.97897 12.4588C2.36576 12.8456 2.89037 13.0629 3.43738 13.0629C3.98439 13.0629 4.50899 12.8456 4.89578 12.4588C5.28258 12.072 5.49988 11.5474 5.49988 11.0004C5.49988 10.4534 5.28258 9.92882 4.89578 9.54202C4.50899 9.15523 3.98439 8.93793 3.43738 8.93793ZM18.5624 16.5004C18.0154 16.5004 17.4908 16.7177 17.104 17.1045C16.7172 17.4913 16.4999 18.0159 16.4999 18.5629C16.4999 19.1099 16.7172 19.6345 17.104 20.0213C17.4908 20.4081 18.0154 20.6254 18.5624 20.6254C19.1094 20.6254 19.634 20.4081 20.0208 20.0213C20.4076 19.6345 20.6249 19.1099 20.6249 18.5629C20.6249 18.0159 20.4076 17.4913 20.0208 17.1045C19.634 16.7177 19.1094 16.5004 18.5624 16.5004Z" fill="black"/>
</svg>
