<svg width="26" height="27" viewBox="0 0 26 27" fill="none" xmlns="http://www.w3.org/2000/svg">
<path d="M18.7778 0H7.22222C3.2335 0 0 3.35786 0 7.5V19.5C0 23.6421 3.2335 27 7.22222 27H18.7778C22.7665 27 26 23.6421 26 19.5V7.5C26 3.35786 22.7665 0 18.7778 0ZM23.4722 19.5C23.4643 22.189 21.3672 24.3668 18.7778 24.375H7.22222C4.63284 24.3668 2.53571 22.189 2.52778 19.5V7.5C2.53571 4.81103 4.63284 2.63324 7.22222 2.625H18.7778C21.3672 2.63324 23.4643 4.81103 23.4722 7.5V19.5ZM21.3056 6.375C21.3056 7.20343 20.6589 7.875 19.8611 7.875C19.0634 7.875 18.4167 7.20343 18.4167 6.375C18.4167 5.54657 19.0634 4.875 19.8611 4.875C20.6589 4.875 21.3056 5.54657 21.3056 6.375ZM13 6.75C9.41015 6.75 6.5 9.77208 6.5 13.5C6.5 17.2279 9.41015 20.25 13 20.25C16.5899 20.25 19.5 17.2279 19.5 13.5C19.5038 11.7086 18.8203 9.98936 17.6004 8.72262C16.3806 7.45588 14.7251 6.74601 13 6.75ZM13 17.625C10.8062 17.625 9.02778 15.7782 9.02778 13.5C9.02778 11.2218 10.8062 9.375 13 9.375C15.1938 9.375 16.9722 11.2218 16.9722 13.5C16.9722 15.7782 15.1938 17.625 13 17.625Z" fill="#333333"/>
</svg>
