<svg width="85" height="85" viewBox="0 0 85 85" fill="none" xmlns="http://www.w3.org/2000/svg">
<rect width="85" height="85" rx="18" fill="#666666"/>
<rect x="8" y="7" width="70" height="70" rx="18" fill="white"/>
<path d="M32.9962 30.4792C32.9962 25.1277 37.4751 20.7896 43 20.7896C48.5249 20.7896 53.0038 25.1277 53.0038 30.4792C53.0038 35.8306 48.5249 40.1688 43 40.1688C40.3468 40.1688 37.8023 39.1479 35.9263 37.3307C34.0502 35.5136 32.9962 33.049 32.9962 30.4792ZM62.7325 56.0355L59.1311 49.0348C57.8586 46.5659 55.2524 45.0081 52.4036 45.0136H33.5964C30.7476 45.0081 28.1414 46.5659 26.8689 49.0348L23.2675 56.0355C22.8775 56.7853 22.916 57.6772 23.3695 58.3928C23.8229 59.1083 24.6266 59.5454 25.4934 59.548H60.5066C61.3734 59.5454 62.1771 59.1083 62.6305 58.3928C63.084 57.6772 63.1225 56.7853 62.7325 56.0355Z" fill="#666666"/>
</svg>
