<svg width="26" height="26" viewBox="0 0 26 26" fill="none" xmlns="http://www.w3.org/2000/svg">
<path d="M22.1016 3.77984C20.9099 2.57652 19.4904 1.62256 17.9261 0.973617C16.3617 0.32467 14.6838 -0.00627383 12.9902 9.00657e-05C5.89387 9.00657e-05 0.1105 5.78184 0.104 12.8798C0.104 15.1532 0.69875 17.3648 1.82163 19.323L0 26.0001L6.8315 24.2093C8.72054 25.24 10.8384 25.7792 12.9902 25.7775H12.9967C20.0947 25.7775 25.8765 19.9957 25.883 12.8912C25.8844 11.1981 25.5509 9.52135 24.9017 7.95762C24.2524 6.3939 23.3019 4.97405 22.1016 3.77984ZM12.9902 23.5967C11.0714 23.5952 9.18812 23.0789 7.53675 22.1017L7.14675 21.8677L3.094 22.9305L4.17625 18.9768L3.92275 18.569C2.84994 16.8632 2.28255 14.8884 2.28637 12.8733C2.28637 6.98109 7.0915 2.17434 12.9967 2.17434C14.4036 2.17182 15.797 2.44779 17.0967 2.98634C18.3963 3.52489 19.5765 4.31537 20.5693 5.31221C21.5652 6.30533 22.3548 7.48572 22.8925 8.78537C23.4302 10.085 23.7054 11.4782 23.7023 12.8847C23.6958 18.7981 18.8906 23.5967 12.9902 23.5967ZM18.8646 15.579C18.5445 15.4181 16.9634 14.6397 16.666 14.5292C16.3702 14.4236 16.1541 14.3683 15.9429 14.6901C15.7267 15.0102 15.1093 15.7398 14.924 15.9495C14.7388 16.1656 14.547 16.19 14.2252 16.0307C13.9051 15.8682 12.8668 15.5302 11.6383 14.4301C10.6795 13.577 10.0376 12.5207 9.84587 12.2006C9.66063 11.8788 9.828 11.7066 9.98887 11.5457C10.1302 11.4027 10.309 11.1687 10.4699 10.9835C10.6324 10.7982 10.686 10.6617 10.7916 10.4472C10.8972 10.2295 10.8469 10.0442 10.7673 9.88334C10.686 9.72246 10.0441 8.13484 9.77275 7.49459C9.51275 6.86246 9.24787 6.95021 9.04962 6.94209C8.86437 6.93071 8.64825 6.93071 8.43213 6.93071C8.26893 6.93487 8.10836 6.97266 7.96044 7.04173C7.81253 7.11079 7.68046 7.20964 7.5725 7.33209C7.27675 7.65384 6.44963 8.43221 6.44963 10.0198C6.44963 11.6075 7.60337 13.1333 7.76587 13.3495C7.92512 13.5656 10.0311 16.814 13.2632 18.2115C14.027 18.5446 14.6283 18.7412 15.0979 18.8907C15.8698 19.1377 16.5669 19.1003 17.1226 19.0207C17.7401 18.9265 19.0255 18.2407 19.2969 17.4883C19.5634 16.7343 19.5634 16.0908 19.4821 15.956C19.4025 15.8195 19.1864 15.7398 18.8646 15.579Z" fill="black"/>
</svg>
