<svg width="25" height="22" viewBox="0 0 25 22" fill="none" xmlns="http://www.w3.org/2000/svg">
<path d="M12.5797 0H12.7188C14.0031 0.0058125 20.5109 0.0639378 22.2656 0.649063C22.7961 0.827639 23.2795 1.17572 23.6674 1.65852C24.0554 2.14131 24.3344 2.74192 24.4766 3.40031C24.6344 4.13656 24.7453 5.11113 24.8203 6.11669L24.8359 6.31819L24.8703 6.82194L24.8828 7.02344C24.9844 8.79431 24.9969 10.4528 24.9984 10.8151V10.9604C24.9969 11.3363 24.9828 13.1072 24.8703 14.9517L24.8578 15.1551L24.8438 15.3566C24.7656 16.4649 24.65 17.5654 24.4766 18.3753C24.3344 19.0336 24.0554 19.6343 23.6674 20.1171C23.2795 20.5998 22.7961 20.9479 22.2656 21.1265C20.4531 21.731 13.5641 21.7736 12.6094 21.7756H12.3875C11.9047 21.7756 9.90781 21.7639 7.81406 21.6748L7.54844 21.6632L7.4125 21.6554L7.14531 21.6419L6.87813 21.6283C5.14375 21.5334 3.49219 21.3803 2.73125 21.1246C2.20098 20.9462 1.71773 20.5984 1.32977 20.1159C0.941801 19.6335 0.662693 19.0333 0.520313 18.3753C0.346875 17.5673 0.23125 16.4649 0.153125 15.3566L0.140625 15.1532L0.128125 14.9517C0.0505679 13.6389 0.00783643 12.3232 0 11.0069L0 10.7686C0.003125 10.3521 0.015625 8.9125 0.1 7.32375L0.110938 7.12419L0.115625 7.02344L0.128125 6.82194L0.1625 6.31819L0.178125 6.11669C0.253125 5.11113 0.364063 4.13463 0.521875 3.40031C0.664016 2.74192 0.943019 2.14131 1.331 1.65852C1.71898 1.17572 2.20235 0.827639 2.73281 0.649063C3.49375 0.397188 5.14531 0.242187 6.87969 0.145312L7.14531 0.13175L7.41406 0.120125L7.54844 0.114313L7.81563 0.10075C9.30267 0.0414695 10.7903 0.00852841 12.2781 0.00193759L12.5797 0ZM10 6.21938V15.5543L16.4953 10.8888L10 6.21938Z" fill="black"/>
</svg>
